# xmcd
#
# Track frame offsets:
#	150
#	11367
#	23716
#	44817
#	59410
#	70643
#	87567
#	100375
#	109298
#	127145
#
# Disc length: 1864 seconds
#
# Revision: 1
# Processed by: cddbd v1.5.2PL0 Copyright (c) Steve Scherf et al.
# Submitted via: audiograbber 1.83.01
#
DISCID=8c07460a
DTITLE=Dean Dillon - Perfect Day
DYEAR=2009
DGENRE=Country
TTITLE0=She Ain't Right
TTITLE1=I See Red
TTITLE2=I Ain't Her Cowboy
TTITLE3=I Liked You Better
TTITLE4=Colorado
TTITLE5=I Remember Now
TTITLE6=Out Here Livin' Life
TTITLE7=West Texas Town
TTITLE8=It Must Be Mine
TTITLE9=Perfect Day
EXTD=
EXTT0=
EXTT1=
EXTT2=
EXTT3=
EXTT4=
EXTT5=
EXTT6=
EXTT7=
EXTT8=
EXTT9=
PLAYORDER=
